<svg width="168" height="186" xmlns="http://www.w3.org/2000/svg">
 <!-- Created with Method Draw - http://github.com/duopixel/Method-Draw/ -->
 <g>
  <title>background</title>
  <rect fill="#fff" id="canvas_background" height="188" width="170" y="-1" x="-1"/>
  <g display="none" overflow="visible" y="0" x="0" height="100%" width="100%" id="canvasGrid">
   <rect fill="url(#gridpattern)" stroke-width="0" y="0" x="0" height="100%" width="100%"/>
  </g>
 </g>
 <g>
  <title>Layer 1</title>
  <path stroke="#000" id="svg_1" d="m130.024753,32.738459c-12.014697,-10.233942 -24.973209,-18.43197 -35.603184,-19.549608c-0.57869,-0.072495 -1.178047,-0.114784 -1.811849,-0.126867l-69.959431,0c-1.116044,0 -2.21831,0.380601 -3.003674,1.087432c-0.778475,0.688707 -1.240049,1.655313 -1.240049,2.640043l0,155.563167c0,0.978689 0.434017,1.915088 1.240049,2.62796c0.806032,0.700789 1.866963,1.081391 3.003674,1.081391l126.512554,0c1.116044,0 2.183864,-0.37456 2.989896,-1.081391c0.806032,-0.706831 1.253827,-1.64323 1.253827,-2.62796l0,-103.51747c-0.24801,-12.016122 -10.981323,-25.119676 -23.381813,-36.096696zm14.880588,135.874609l-118.025107,0l0,-148.1203l65.736375,0l0,0.012083c2.865891,-0.151032 5.3391,2.331937 7.233619,8.010748c1.72229,5.406953 2.156307,12.457136 2.149418,17.344538c0.013778,3.582484 -0.186007,5.986916 -0.186007,5.986916l-0.337569,3.93892l4.51929,0.042289c0.020667,0 10.443968,0.108743 20.667483,2.144657c9.823944,1.860717 17.505358,5.570068 18.221831,9.768763c0.027557,0.37456 0.034446,0.74912 0.027557,1.099514l0,99.771872l-0.006889,0z" stroke-width="4.5" fill="#00007f"/>
  <path id="svg_2" d="m266.5,253" opacity="0.5" stroke-width="1.5" stroke="#000" fill="#0000bf"/>
  <text font-style="normal" font-weight="bold" xml:space="preserve" text-anchor="start" font-family="Helvetica, Arial, sans-serif" font-size="76" id="svg_3" y="131" x="32.5" stroke-opacity="null" stroke-width="5" stroke="#000" fill="#00007f">HV</text>
 </g>
</svg>